<svg xmlns="http://www.w3.org/2000/svg" width="48" height="48" viewBox="0 0 48 48">
  <path fill="#1DA1F2" d="M24 4C12.95 4 4 12.95 4 24c0 11.05 8.95 20 20 20s20-8.95 20-20C44 12.95 35.05 4 24 4z"/>
  <path fill="#fff" d="M34.6 17.1c-.8.3-1.6.5-2.4.6.9-.6 1.5-1.3 1.8-2.3-.8.5-1.7.8-2.6 1-.8-.8-1.9-1.3-3.1-1.3-2.4 0-4.4 1.9-4.4 4.4 0 .3 0 .7.1 1C20.5 20.1 17.5 18.4 15.5 15.9c-.4.7-.6 1.5-.6 2.4 0 1.5.8 2.9 2 3.7-.7 0-1.4-.2-2-.5v.1c0 2.1 1.5 3.8 3.5 4.2-.4.1-.8.1-1.2.1-.3 0-.6 0-.9-.1.6 2 2.3 3.5 4.3 3.6-1.6 1.3-3.7 2-5.9 2-.4 0-.8 0-1.2-.1 2.1 1.4 4.7 2.2 7.5 2.2 9 0 13.9-7.5 13.9-14 0-.2 0-.3 0-.5.9-.7 1.6-1.4 2.1-2.3z"/>
</svg>